<svg xmlns="http://www.w3.org/2000/svg" xml:space="preserve" viewBox="0 0 24 24"><path fill="none" d="M0 0h24v24H0z"/><path fill="#E5E5E5" fill-rule="evenodd" d="M20.84 6.469c-.566-2.397-2.627-4.175-5.09-4.175-2.9 0-5.25 2.462-5.25 5.5q0 .295.03.58C9.634 8.751 9 9.666 9 10.741c0 1.41 1.091 2.553 2.438 2.553h9.3c1.802 0 3.262-1.53 3.262-3.418 0-1.85-1.406-3.35-3.16-3.407" clip-rule="evenodd"/><path fill="#FFF" d="M3.7 20.676c-1.765 0-3.2-1.43-3.2-3.187 0-1.304.788-2.464 2.009-2.953l.35-.14-.04-.375a8 8 0 0 1-.043-.785c0-4.103 3.35-7.442 7.468-7.442a7.44 7.44 0 0 1 7.24 5.648l.092.367.378.012c2.417.077 4.31 2.019 4.31 4.42 0 2.446-1.997 4.436-4.45 4.436z"/><path fill="#1D1D33" d="M10.244 6.294A6.94 6.94 0 0 1 17 11.563l.182.734.757.024c2.146.068 3.827 1.79 3.827 3.92 0 2.17-1.773 3.936-3.952 3.936H3.7A2.696 2.696 0 0 1 1 17.489c0-1.1.665-2.076 1.694-2.488l.7-.281-.077-.75a7 7 0 0 1-.04-.735c0-3.827 3.125-6.94 6.967-6.94m0-1c-4.4 0-7.968 3.553-7.968 7.94q.001.426.046.838A3.68 3.68 0 0 0 0 17.489a3.694 3.694 0 0 0 3.7 3.687h14.113c2.736 0 4.952-2.21 4.952-4.934 0-2.673-2.134-4.836-4.796-4.92a7.96 7.96 0 0 0-7.725-6.028"/></svg>