<svg xmlns="http://www.w3.org/2000/svg" xml:space="preserve" viewBox="0 0 24 24"><path fill="none" d="M0 0h24v24H0z"/><linearGradient id="a" x1="12" x2="12" y1="16" y2="2" gradientUnits="userSpaceOnUse"><stop offset=".25" style="stop-color:#fff;stop-opacity:0"/><stop offset="1" style="stop-color:#fff"/></linearGradient><path fill="url(#a)" fill-rule="evenodd" d="M11 2a7 7 0 0 0-6.96 7.738A3.245 3.245 0 0 0 2 12.75 3.25 3.25 0 0 0 5.25 16h12.4A4.35 4.35 0 0 0 22 11.65a4.34 4.34 0 0 0-4.213-4.337A6.995 6.995 0 0 0 11 2" clip-rule="evenodd"/><linearGradient id="b" x1="12" x2="12" y1="16" y2="2" gradientUnits="userSpaceOnUse"><stop offset=".25" style="stop-color:#1d1d33;stop-opacity:0"/><stop offset=".7" style="stop-color:#1d1d33"/></linearGradient><path fill="url(#b)" d="M11 3a5.98 5.98 0 0 1 5.816 4.554l.182.735.757.024A3.33 3.33 0 0 1 21 11.65 3.354 3.354 0 0 1 17.65 15H5.25C4.01 15 3 13.991 3 12.75c0-.921.554-1.74 1.412-2.084l.7-.28-.077-.75A6.007 6.007 0 0 1 11 3m0-1a7 7 0 0 0-6.96 7.737A3.245 3.245 0 0 0 2 12.75 3.25 3.25 0 0 0 5.25 16h12.4A4.35 4.35 0 0 0 22 11.65a4.34 4.34 0 0 0-4.213-4.337A6.995 6.995 0 0 0 11 2"/><path fill="#D5DEE8" fill-rule="evenodd" d="M11.997 21.86c-2.577 0-3.886-.42-5.151-.824-1.247-.4-2.425-.777-4.846-.777a.5.5 0 1 1 0-1c2.578 0 3.886.42 5.15.824 1.248.4 2.426.776 4.847.776 2.423 0 3.6-.377 4.849-.776 1.266-.405 2.575-.824 5.154-.824a.5.5 0 1 1 0 1c-2.422 0-3.601.377-4.85.777-1.265.404-2.574.823-5.153.823m0-6c-2.577 0-3.886-.419-5.151-.823-1.247-.4-2.425-.777-4.846-.777a.5.5 0 1 1 0-1c2.578 0 3.886.42 5.15.824 1.248.4 2.426.776 4.847.776 2.423 0 3.6-.377 4.849-.776 1.266-.405 2.575-.824 5.154-.824a.5.5 0 1 1 0 1c-2.422 0-3.601.377-4.85.777-1.265.404-2.574.823-5.153.823m0 3c-2.577 0-3.886-.419-5.151-.823-1.247-.4-2.425-.777-4.846-.777a.5.5 0 1 1 0-1c2.578 0 3.886.42 5.15.824 1.248.4 2.426.776 4.847.776 2.423 0 3.6-.377 4.849-.776 1.266-.405 2.575-.824 5.154-.824a.5.5 0 1 1 0 1c-2.422 0-3.601.377-4.85.777-1.265.404-2.574.823-5.153.823" clip-rule="evenodd"/></svg>