<svg xmlns="http://www.w3.org/2000/svg" xml:space="preserve" viewBox="0 0 24 24"><path fill="#D5DEE8" fill-rule="evenodd" d="M11.753 9.526a.5.5 0 0 1-.462-.691l.478-1.155a.5.5 0 1 1 .924.383l-.478 1.154a.5.5 0 0 1-.462.309m-3.274-.31.478-1.153a.5.5 0 1 0-.923-.383l-.479 1.155a.5.5 0 0 0 .924.382m7.472 0 .478-1.154a.5.5 0 0 0-.27-.654.503.503 0 0 0-.654.27l-.478 1.156a.5.5 0 1 0 .924.382" clip-rule="evenodd"/><path fill="none" d="M0 0h24v24H0z"/><path fill="#0072F5" fill-rule="evenodd" d="M21 12H3c-.552 0-1 1-1 1s.448 1 1 1h1c.003.001 1 .449 1 1v2c0 .553 1 1 1 1s1-.447 1-1v-2c0-.551.997-.999 1-1 .003.001 1 .449 1 1v2c0 .553 1 1 1 1s1-.447 1-1v-2c0-.551.997-.999 1-1 .003.001 1 .449 1 1v2c0 .553 1 1 1 1s1-.447 1-1v-2c0-.551.997-.999 1-1 .002.001 1 .449 1 1v2c0 .553 1 1 1 1s1-.447 1-1v-2c0-.551.997-.999 1-1h1c.552 0 1-1 1-1s-.448-1-1-1" clip-rule="evenodd"/></svg>