<svg xmlns="http://www.w3.org/2000/svg" xml:space="preserve" viewBox="0 0 24 24"><path fill="none" d="M0 0h24v24H0z"/><path fill="#0072F5" fill-rule="evenodd" d="m13.006 20.962-1.531-3.696-3.695 1.53 1.53 3.697zm-3.498-7.375-1.848.765.766 1.848 1.847-.766zm9.98 7.278-1.531-3.696-3.695 1.53 1.53 3.697zM6.1 20.962 4.57 17.266l-3.695 1.53 1.53 3.697zm9.889-7.472-1.848.765.765 1.848 1.848-.765z" clip-rule="evenodd"/><path fill="#D5DEE8" fill-rule="evenodd" d="M14.292 2.039a.5.5 0 0 1 .27.653l-3.827 9.238a.5.5 0 1 1-.924-.382l3.827-9.24a.5.5 0 0 1 .654-.27m1.314 3.949a.5.5 0 0 1 .924.383l-3.827 9.239a.5.5 0 1 1-.924-.383zm6.482-.097a.5.5 0 0 1 .924.383l-3.827 9.239a.5.5 0 1 1-.924-.383zM8.7 5.988a.5.5 0 0 1 .924.383L5.798 15.61a.5.5 0 1 1-.924-.383zm12.073-4.046a.5.5 0 0 1 .27.653l-3.827 9.238a.5.5 0 1 1-.924-.382l3.827-9.239a.5.5 0 0 1 .654-.27" clip-rule="evenodd"/></svg>