<svg xmlns="http://www.w3.org/2000/svg" xml:space="preserve" viewBox="0 0 24 24"><path fill="none" d="M0 0h24v24H0z"/><path fill="#0072F5" fill-rule="evenodd" d="m13.506 20.962-1.531-3.696-3.695 1.53 1.53 3.697zm-3.998-7.375-1.848.765.766 1.848 1.847-.766zm-4.71 1.734-1.848.766.766 1.847 1.847-.764zM17.49 13.49l-1.848.765.765 1.848 1.848-.765z" clip-rule="evenodd"/><path fill="#D5DEE8" fill-rule="evenodd" d="M20.472 4.983a.5.5 0 0 1 .924.383l-2.68 6.468a.5.5 0 0 1-.923-.383zm-6.18-2.944a.5.5 0 0 1 .27.653l-3.827 9.238a.5.5 0 1 1-.924-.382l3.827-9.24a.5.5 0 0 1 .654-.27M8.162 5.89a.5.5 0 1 1 .925.383l-3.062 7.39a.5.5 0 0 1-.924-.382zm7.944.097a.5.5 0 0 1 .924.383l-3.827 9.239a.5.5 0 1 1-.924-.383z" clip-rule="evenodd"/></svg>