<svg xmlns="http://www.w3.org/2000/svg" xml:space="preserve" viewBox="0 0 24 24"><path fill="none" d="M0 0h24v24H0z"/><path fill="#0072F5" fill-rule="evenodd" d="m12.265 12.337-1.849.765.766 1.848 1.847-.765zm-5.21 1.734-1.848.767.766 1.847 1.847-.764zm8.178 1.946-1.848.765.765 1.848 1.848-.765z" clip-rule="evenodd"/><path fill="#D5DEE8" fill-rule="evenodd" d="M15.135 5.409a.5.5 0 0 1 .27.653l-1.913 4.619a.5.5 0 1 1-.925-.383l1.914-4.62a.5.5 0 0 1 .654-.27M8.889 8.337a.5.5 0 1 1 .924.383l-1.531 3.695a.5.5 0 0 1-.924-.382zm8.943.097a.5.5 0 0 1 .924.383l-2.296 5.544a.5.5 0 1 1-.925-.384z" clip-rule="evenodd"/></svg>