<svg xmlns="http://www.w3.org/2000/svg" xml:space="preserve" viewBox="0 0 24 24"><path fill="none" d="M0 0h24v24H0z"/><path fill="#D5DEE8" fill-rule="evenodd" d="M15.255 3.432a6.08 6.08 0 0 0 7.464 5.92 6.08 6.08 0 1 1-7.024-8.194 6.1 6.1 0 0 0-.44 2.274" clip-rule="evenodd"/><path fill="#FFF" fill-rule="evenodd" d="M5.25 20.5a2.753 2.753 0 0 1-2.75-2.75c0-1.126.678-2.127 1.727-2.548l.35-.14-.04-.376A6.508 6.508 0 0 1 11 7.5a6.48 6.48 0 0 1 6.302 4.933l.09.368.38.011A3.83 3.83 0 0 1 21.5 16.65a3.855 3.855 0 0 1-3.85 3.85z" clip-rule="evenodd"/><path fill="#1D1D33" d="M11 8a5.98 5.98 0 0 1 5.816 4.554l.182.735.757.024A3.33 3.33 0 0 1 21 16.65 3.354 3.354 0 0 1 17.65 20H5.25C4.01 20 3 18.99 3 17.75c0-.92.554-1.739 1.413-2.084l.699-.281-.078-.75A6.007 6.007 0 0 1 11 8m0-1a7 7 0 0 0-6.96 7.738A3.247 3.247 0 0 0 5.25 21h12.4A4.35 4.35 0 0 0 22 16.65a4.343 4.343 0 0 0-4.212-4.337A6.995 6.995 0 0 0 11 7"/></svg>