<svg xmlns="http://www.w3.org/2000/svg" xml:space="preserve" viewBox="0 0 24 24"><path fill="none" d="M0 0h24v24H0z"/><path fill="#D5DEE8" fill-rule="evenodd" d="M17.482 5.419a3.546 3.546 0 0 0 4.354 3.453 3.548 3.548 0 1 1-4.098-4.78c-.165.41-.256.858-.256 1.327" clip-rule="evenodd"/><path fill="#FFF" fill-rule="evenodd" d="M5.25 18.5a2.753 2.753 0 0 1-2.75-2.75c0-1.126.678-2.126 1.727-2.548l.35-.14-.04-.376A6.508 6.508 0 0 1 11 5.501a6.48 6.48 0 0 1 6.302 4.933l.09.367.38.012A3.83 3.83 0 0 1 21.5 14.65a3.855 3.855 0 0 1-3.85 3.85z" clip-rule="evenodd"/><path fill="#1D1D33" d="M11 6a5.98 5.98 0 0 1 5.816 4.554l.182.735.757.024A3.33 3.33 0 0 1 21 14.65 3.354 3.354 0 0 1 17.65 18H5.25C4.01 18 3 16.991 3 15.75c0-.92.554-1.739 1.413-2.084l.699-.28-.078-.75A6.007 6.007 0 0 1 11 6m0-1a7 7 0 0 0-6.96 7.737A3.247 3.247 0 0 0 5.25 19h12.4A4.35 4.35 0 0 0 22 14.65a4.343 4.343 0 0 0-4.212-4.337A6.995 6.995 0 0 0 11 5"/></svg>