<svg xmlns="http://www.w3.org/2000/svg" xml:space="preserve" viewBox="0 0 24 24"><path fill="none" d="M0 0h24v24H0z" clip-rule="evenodd"/><path fill="#FFF" fill-rule="evenodd" d="M5.25 15.5a2.753 2.753 0 0 1-2.75-2.75c0-1.126.678-2.127 1.727-2.548l.35-.14-.04-.376A6.508 6.508 0 0 1 11 2.5a6.48 6.48 0 0 1 6.302 4.933l.09.368.38.011A3.83 3.83 0 0 1 21.5 11.65a3.855 3.855 0 0 1-3.85 3.85z" clip-rule="evenodd"/><path fill="#1D1D33" d="M11 3a5.98 5.98 0 0 1 5.816 4.553l.182.736.757.024A3.33 3.33 0 0 1 21 11.65 3.354 3.354 0 0 1 17.65 15H5.25C4.01 15 3 13.99 3 12.75c0-.921.554-1.739 1.413-2.084l.699-.281-.077-.75A6.007 6.007 0 0 1 11 3m0-1a7 7 0 0 0-6.96 7.738A3.247 3.247 0 0 0 5.25 16h12.4A4.35 4.35 0 0 0 22 11.65a4.34 4.34 0 0 0-4.213-4.337A6.995 6.995 0 0 0 11 2"/><path fill="#0072F5" fill-rule="evenodd" d="M11.534 19.04a.5.5 0 0 1-.462-.691l.479-1.155a.5.5 0 0 1 .924.383l-.479 1.154a.5.5 0 0 1-.462.309m-3.274-.309.478-1.154a.5.5 0 0 0-.923-.383l-.479 1.155a.5.5 0 0 0 .924.382m1.146 2.871.479-1.155a.5.5 0 0 0-.924-.383l-.479 1.155a.5.5 0 0 0 .924.383m-3.743 0 .478-1.155a.5.5 0 1 0-.924-.382l-.478 1.155a.5.5 0 1 0 .924.382m-1.139-2.87.479-1.156a.5.5 0 0 0-.924-.383l-.478 1.156a.5.5 0 0 0 .923.382m14.944 0 .478-1.155a.5.5 0 0 0-.924-.383l-.478 1.155a.5.5 0 0 0 .924.382m-3.737 0 .479-1.155a.5.5 0 0 0-.924-.383l-.478 1.155a.5.5 0 0 0 .923.382m1.164 2.87.477-1.155a.5.5 0 1 0-.924-.382l-.477 1.155a.5.5 0 1 0 .924.382m-3.745 0 .479-1.155a.5.5 0 0 0-.924-.383l-.478 1.155a.5.5 0 0 0 .923.383" clip-rule="evenodd"/></svg>