<svg xmlns="http://www.w3.org/2000/svg" xml:space="preserve" viewBox="0 0 24 24"><path fill="none" d="M0 0h24v24H0z"/><path fill="#FFF" fill-rule="evenodd" d="M5.25 15.5a2.753 2.753 0 0 1-2.75-2.75c0-1.126.678-2.126 1.727-2.548l.35-.14-.04-.376A6.508 6.508 0 0 1 11 2.5a6.48 6.48 0 0 1 6.302 4.933l.09.368.38.011A3.83 3.83 0 0 1 21.5 11.65a3.855 3.855 0 0 1-3.85 3.85z" clip-rule="evenodd"/><path fill="#1D1D33" d="M11 3a5.98 5.98 0 0 1 5.816 4.553l.182.735.757.024A3.33 3.33 0 0 1 21 11.65 3.354 3.354 0 0 1 17.65 15H5.25C4.01 15 3 13.99 3 12.75c0-.921.555-1.74 1.413-2.084l.7-.281-.078-.75A6.007 6.007 0 0 1 11 3m0-1a7 7 0 0 0-6.96 7.738A3.247 3.247 0 0 0 5.25 16h12.4A4.35 4.35 0 0 0 22 11.65a4.343 4.343 0 0 0-4.213-4.337A6.995 6.995 0 0 0 11 2"/><path fill="#0072F5" d="m6.32 19.66-.817.471.817.472a.5.5 0 1 1-.5.866l-.817-.471v.943a.5.5 0 1 1-1 0v-.944l-.817.472a.5.5 0 0 1-.5-.866l.817-.471-.817-.472a.5.5 0 1 1 .5-.866l.817.472v-.944a.5.5 0 1 1 1 0v.943l.817-.471a.5.5 0 1 1 .5.866m14.994.943-.817-.471.817-.472a.5.5 0 1 0-.5-.866l-.817.472v-.944a.5.5 0 1 0-1 0v.943l-.817-.47a.5.5 0 0 0-.5.865l.817.472-.817.471a.5.5 0 1 0 .5.866l.817-.471v.943a.5.5 0 1 0 1 0v-.943l.817.471a.5.5 0 0 0 .5-.866m-7.315-1.626a.5.5 0 0 0-.682-.183l-.817.471v-.943a.5.5 0 1 0-1 0v.944l-.817-.472a.5.5 0 0 0-.5.866l.817.471-.817.472a.5.5 0 1 0 .5.866l.817-.472v.944a.5.5 0 1 0 1 0v-.943l.817.47a.5.5 0 0 0 .5-.865L13 20.13l.817-.471a.5.5 0 0 0 .182-.683"/></svg>